<svg xmlns="http://www.w3.org/2000/svg" viewBox="0 0 1040 420" role="img" aria-label="World time zones by UTC offset">
<rect width="1040" height="420" fill="#ffffff"/>
<text x="20" y="28" font-family="sans-serif" font-size="18" font-weight="800" fill="#132272">Standard time zones — UTC offset</text>
<text x="1020" y="28" text-anchor="end" font-family="sans-serif" font-size="12" fill="#7a7a7a">WEST  ←  UTC 0  →  EAST</text>
<rect x="0.0" y="60" width="41.6" height="250" fill="#eaf4fb" stroke="#ffffff" stroke-width="0.6"/><rect x="41.6" y="60" width="41.6" height="250" fill="#f6efe3" stroke="#ffffff" stroke-width="0.6"/><rect x="83.2" y="60" width="41.6" height="250" fill="#eaf4fb" stroke="#ffffff" stroke-width="0.6"/><rect x="124.8" y="60" width="41.6" height="250" fill="#f6efe3" stroke="#ffffff" stroke-width="0.6"/><rect x="166.4" y="60" width="41.6" height="250" fill="#eaf4fb" stroke="#ffffff" stroke-width="0.6"/><rect x="208.0" y="60" width="41.6" height="250" fill="#f6efe3" stroke="#ffffff" stroke-width="0.6"/><rect x="249.6" y="60" width="41.6" height="250" fill="#eaf4fb" stroke="#ffffff" stroke-width="0.6"/><rect x="291.2" y="60" width="41.6" height="250" fill="#f6efe3" stroke="#ffffff" stroke-width="0.6"/><rect x="332.8" y="60" width="41.6" height="250" fill="#eaf4fb" stroke="#ffffff" stroke-width="0.6"/><rect x="374.4" y="60" width="41.6" height="250" fill="#f6efe3" stroke="#ffffff" stroke-width="0.6"/><rect x="416.0" y="60" width="41.6" height="250" fill="#eaf4fb" stroke="#ffffff" stroke-width="0.6"/><rect x="457.6" y="60" width="41.6" height="250" fill="#f6efe3" stroke="#ffffff" stroke-width="0.6"/><rect x="499.2" y="60" width="41.6" height="250" fill="#cfe9f7" stroke="#ffffff" stroke-width="0.6"/><rect x="540.8" y="60" width="41.6" height="250" fill="#f6efe3" stroke="#ffffff" stroke-width="0.6"/><rect x="582.4" y="60" width="41.6" height="250" fill="#eaf4fb" stroke="#ffffff" stroke-width="0.6"/><rect x="624.0" y="60" width="41.6" height="250" fill="#f6efe3" stroke="#ffffff" stroke-width="0.6"/><rect x="665.6" y="60" width="41.6" height="250" fill="#eaf4fb" stroke="#ffffff" stroke-width="0.6"/><rect x="707.2" y="60" width="41.6" height="250" fill="#f6efe3" stroke="#ffffff" stroke-width="0.6"/><rect x="748.8" y="60" width="41.6" height="250" fill="#eaf4fb" stroke="#ffffff" stroke-width="0.6"/><rect x="790.4" y="60" width="41.6" height="250" fill="#f6efe3" stroke="#ffffff" stroke-width="0.6"/><rect x="832.0" y="60" width="41.6" height="250" fill="#eaf4fb" stroke="#ffffff" stroke-width="0.6"/><rect x="873.6" y="60" width="41.6" height="250" fill="#f6efe3" stroke="#ffffff" stroke-width="0.6"/><rect x="915.2" y="60" width="41.6" height="250" fill="#eaf4fb" stroke="#ffffff" stroke-width="0.6"/><rect x="956.8" y="60" width="41.6" height="250" fill="#f6efe3" stroke="#ffffff" stroke-width="0.6"/><rect x="998.4" y="60" width="41.6" height="250" fill="#eaf4fb" stroke="#ffffff" stroke-width="0.6"/><rect x="499.2" y="60" width="41.6" height="250" fill="none" stroke="#132272" stroke-width="1.6"/><text x="20.8" y="46" text-anchor="middle" font-family="monospace" font-size="14" font-weight="700" fill="#3a4a78">-12</text><text x="62.4" y="46" text-anchor="middle" font-family="monospace" font-size="14" font-weight="700" fill="#3a4a78">-11</text><text x="104.0" y="46" text-anchor="middle" font-family="monospace" font-size="14" font-weight="700" fill="#3a4a78">-10</text><text x="145.6" y="46" text-anchor="middle" font-family="monospace" font-size="14" font-weight="700" fill="#3a4a78">-9</text><text x="187.2" y="46" text-anchor="middle" font-family="monospace" font-size="14" font-weight="700" fill="#3a4a78">-8</text><text x="228.8" y="46" text-anchor="middle" font-family="monospace" font-size="14" font-weight="700" fill="#3a4a78">-7</text><text x="270.4" y="46" text-anchor="middle" font-family="monospace" font-size="14" font-weight="700" fill="#3a4a78">-6</text><text x="312.0" y="46" text-anchor="middle" font-family="monospace" font-size="14" font-weight="700" fill="#3a4a78">-5</text><text x="353.6" y="46" text-anchor="middle" font-family="monospace" font-size="14" font-weight="700" fill="#3a4a78">-4</text><text x="395.2" y="46" text-anchor="middle" font-family="monospace" font-size="14" font-weight="700" fill="#3a4a78">-3</text><text x="436.8" y="46" text-anchor="middle" font-family="monospace" font-size="14" font-weight="700" fill="#3a4a78">-2</text><text x="478.4" y="46" text-anchor="middle" font-family="monospace" font-size="14" font-weight="700" fill="#3a4a78">-1</text><text x="520.0" y="46" text-anchor="middle" font-family="monospace" font-size="14" font-weight="700" fill="#132272">0</text><text x="561.6" y="46" text-anchor="middle" font-family="monospace" font-size="14" font-weight="700" fill="#3a4a78">+1</text><text x="603.2" y="46" text-anchor="middle" font-family="monospace" font-size="14" font-weight="700" fill="#3a4a78">+2</text><text x="644.8" y="46" text-anchor="middle" font-family="monospace" font-size="14" font-weight="700" fill="#3a4a78">+3</text><text x="686.4" y="46" text-anchor="middle" font-family="monospace" font-size="14" font-weight="700" fill="#3a4a78">+4</text><text x="728.0" y="46" text-anchor="middle" font-family="monospace" font-size="14" font-weight="700" fill="#3a4a78">+5</text><text x="769.6" y="46" text-anchor="middle" font-family="monospace" font-size="14" font-weight="700" fill="#3a4a78">+6</text><text x="811.2" y="46" text-anchor="middle" font-family="monospace" font-size="14" font-weight="700" fill="#3a4a78">+7</text><text x="852.8" y="46" text-anchor="middle" font-family="monospace" font-size="14" font-weight="700" fill="#3a4a78">+8</text><text x="894.4" y="46" text-anchor="middle" font-family="monospace" font-size="14" font-weight="700" fill="#3a4a78">+9</text><text x="936.0" y="46" text-anchor="middle" font-family="monospace" font-size="14" font-weight="700" fill="#3a4a78">+10</text><text x="977.6" y="46" text-anchor="middle" font-family="monospace" font-size="14" font-weight="700" fill="#3a4a78">+11</text><text x="1019.2" y="46" text-anchor="middle" font-family="monospace" font-size="14" font-weight="700" fill="#3a4a78">+12</text><text x="104.0" y="330" text-anchor="middle" font-family="sans-serif" font-size="10" fill="#5a5a5a">Hawaii</text><line x1="104.0" y1="310" x2="104.0" y2="322" stroke="#b0b8c8" stroke-width="1"/><text x="187.2" y="330" text-anchor="middle" font-family="sans-serif" font-size="10" fill="#5a5a5a">Los Angeles</text><line x1="187.2" y1="310" x2="187.2" y2="322" stroke="#b0b8c8" stroke-width="1"/><text x="270.4" y="330" text-anchor="middle" font-family="sans-serif" font-size="10" fill="#5a5a5a">Mexico City</text><text x="270.4" y="344" text-anchor="middle" font-family="sans-serif" font-size="10" fill="#5a5a5a">Chicago</text><line x1="270.4" y1="310" x2="270.4" y2="322" stroke="#b0b8c8" stroke-width="1"/><text x="312.0" y="330" text-anchor="middle" font-family="sans-serif" font-size="10" fill="#5a5a5a">New York</text><text x="312.0" y="344" text-anchor="middle" font-family="sans-serif" font-size="10" fill="#5a5a5a">Bogotá</text><line x1="312.0" y1="310" x2="312.0" y2="322" stroke="#b0b8c8" stroke-width="1"/><text x="395.2" y="330" text-anchor="middle" font-family="sans-serif" font-size="10" fill="#5a5a5a">São Paulo</text><text x="395.2" y="344" text-anchor="middle" font-family="sans-serif" font-size="10" fill="#5a5a5a">Buenos Aires</text><line x1="395.2" y1="310" x2="395.2" y2="322" stroke="#b0b8c8" stroke-width="1"/><text x="520.0" y="330" text-anchor="middle" font-family="sans-serif" font-size="10" fill="#5a5a5a">London</text><text x="520.0" y="344" text-anchor="middle" font-family="sans-serif" font-size="10" fill="#5a5a5a">Accra</text><line x1="520.0" y1="310" x2="520.0" y2="322" stroke="#b0b8c8" stroke-width="1"/><text x="561.6" y="330" text-anchor="middle" font-family="sans-serif" font-size="10" fill="#5a5a5a">Berlin</text><text x="561.6" y="344" text-anchor="middle" font-family="sans-serif" font-size="10" fill="#5a5a5a">Lagos</text><line x1="561.6" y1="310" x2="561.6" y2="322" stroke="#b0b8c8" stroke-width="1"/><text x="603.2" y="330" text-anchor="middle" font-family="sans-serif" font-size="10" fill="#5a5a5a">Cairo</text><text x="603.2" y="344" text-anchor="middle" font-family="sans-serif" font-size="10" fill="#5a5a5a">Johannesburg</text><line x1="603.2" y1="310" x2="603.2" y2="322" stroke="#b0b8c8" stroke-width="1"/><text x="644.8" y="330" text-anchor="middle" font-family="sans-serif" font-size="10" fill="#5a5a5a">Nairobi</text><text x="644.8" y="344" text-anchor="middle" font-family="sans-serif" font-size="10" fill="#5a5a5a">Moscow</text><line x1="644.8" y1="310" x2="644.8" y2="322" stroke="#b0b8c8" stroke-width="1"/><text x="686.4" y="330" text-anchor="middle" font-family="sans-serif" font-size="10" fill="#5a5a5a">Dubai</text><line x1="686.4" y1="310" x2="686.4" y2="322" stroke="#b0b8c8" stroke-width="1"/><text x="728.0" y="330" text-anchor="middle" font-family="sans-serif" font-size="10" fill="#5a5a5a">Karachi</text><line x1="728.0" y1="310" x2="728.0" y2="322" stroke="#b0b8c8" stroke-width="1"/><text x="811.2" y="330" text-anchor="middle" font-family="sans-serif" font-size="10" fill="#5a5a5a">Bangkok</text><text x="811.2" y="344" text-anchor="middle" font-family="sans-serif" font-size="10" fill="#5a5a5a">Jakarta</text><line x1="811.2" y1="310" x2="811.2" y2="322" stroke="#b0b8c8" stroke-width="1"/><text x="852.8" y="330" text-anchor="middle" font-family="sans-serif" font-size="10" fill="#5a5a5a">Manila</text><text x="852.8" y="344" text-anchor="middle" font-family="sans-serif" font-size="10" fill="#5a5a5a">Singapore</text><line x1="852.8" y1="310" x2="852.8" y2="322" stroke="#b0b8c8" stroke-width="1"/><text x="894.4" y="330" text-anchor="middle" font-family="sans-serif" font-size="10" fill="#5a5a5a">Tokyo</text><text x="894.4" y="344" text-anchor="middle" font-family="sans-serif" font-size="10" fill="#5a5a5a">Seoul</text><line x1="894.4" y1="310" x2="894.4" y2="322" stroke="#b0b8c8" stroke-width="1"/><text x="936.0" y="330" text-anchor="middle" font-family="sans-serif" font-size="10" fill="#5a5a5a">Sydney</text><line x1="936.0" y1="310" x2="936.0" y2="322" stroke="#b0b8c8" stroke-width="1"/><text x="1019.2" y="330" text-anchor="middle" font-family="sans-serif" font-size="10" fill="#5a5a5a">Auckland</text><line x1="1019.2" y1="310" x2="1019.2" y2="322" stroke="#b0b8c8" stroke-width="1"/>
<text x="20" y="404" font-family="sans-serif" font-size="11" fill="#7a7a7a">Find the city nearest you, then pick that UTC offset in the dropdown. (India is UTC+5:30.)</text>
</svg>